<?xml version="1.0" standalone="no"?>
<!DOCTYPE svg PUBLIC "-//W3C//DTD SVG 20010904//EN"
 "http://www.w3.org/TR/2001/REC-SVG-20010904/DTD/svg10.dtd">
<svg version="1.0" xmlns="http://www.w3.org/2000/svg"
 width="1042.000000pt" height="1042.000000pt" viewBox="0 0 1042.000000 1042.000000"
 preserveAspectRatio="xMidYMid meet">
<metadata>
Created by potrace 1.11, written by Peter Selinger 2001-2013
</metadata>
<g transform="translate(0.000000,1042.000000) scale(0.100000,-0.100000)"
fill="#000000" stroke="none">
<path d="M5400 9059 c-47 -10 -179 -28 -295 -40 -206 -21 -212 -22 -309 -65
l-99 -44 -156 0 c-199 0 -302 -12 -432 -51 -175 -52 -255 -87 -340 -150 -75
-56 -88 -61 -166 -75 -79 -14 -91 -19 -155 -70 -58 -47 -103 -70 -286 -144
-119 -49 -218 -93 -219 -97 -2 -5 -18 -33 -36 -63 -25 -42 -59 -75 -142 -138
-91 -70 -120 -98 -169 -170 -33 -48 -86 -109 -118 -137 -43 -38 -72 -76 -117
-156 -32 -58 -113 -175 -180 -260 l-122 -154 2 -104 3 -105 -84 -37 -85 -38
-20 -63 c-12 -35 -31 -82 -43 -105 -12 -23 -22 -60 -22 -81 0 -24 -11 -59 -30
-93 -35 -66 -56 -142 -70 -258 -6 -47 -23 -155 -37 -240 l-27 -154 25 -46 25
-46 -17 -69 c-35 -133 -34 -191 5 -417 22 -127 36 -238 36 -290 0 -82 2 -88
55 -197 30 -62 55 -117 55 -122 0 -11 20 -17 85 -26 71 -10 90 -18 115 -54 22
-30 22 -31 5 -103 -9 -40 -27 -94 -39 -122 l-23 -50 34 -79 c37 -87 139 -241
215 -325 31 -34 73 -101 113 -180 63 -126 64 -126 198 -253 148 -140 153 -142
238 -113 24 9 49 13 56 11 19 -8 63 -101 69 -149 l6 -43 112 -58 c62 -31 126
-57 142 -58 16 0 54 9 84 21 l54 21 22 -21 c12 -11 40 -23 63 -26 38 -5 41 -8
57 -57 9 -28 19 -54 23 -58 3 -4 78 -21 166 -38 88 -17 212 -42 275 -55 97
-21 170 -27 460 -40 197 -9 407 -23 490 -35 80 -10 170 -19 201 -20 75 0 228
39 325 85 l79 36 105 -10 c97 -10 127 -8 380 24 249 32 299 35 525 35 l250 0
155 56 155 56 160 -22 161 -22 59 33 c50 28 73 35 140 39 l79 5 24 70 c23 65
25 86 27 306 l2 235 -114 100 -115 99 5 58 c8 91 26 109 139 132 22 4 28 13
38 57 22 96 24 238 6 303 -10 32 -24 68 -33 81 -8 13 -26 71 -39 130 l-24 108
29 30 c49 52 51 64 51 250 l0 176 -25 0 c-22 0 -25 4 -25 38 0 32 5 40 37 61
36 23 39 24 202 17 91 -4 234 -14 316 -22 126 -13 165 -14 244 -3 82 11 106
11 201 -5 106 -18 108 -18 147 2 35 18 39 24 35 50 -2 16 1 40 8 52 10 18 8
25 -8 43 -12 13 -23 44 -27 77 -7 49 -15 64 -80 140 -40 47 -81 103 -93 125
-11 22 -31 49 -44 61 l-23 20 -279 -25 c-274 -26 -279 -26 -294 -51 -70 -112
-161 -126 -236 -38 -20 23 -36 47 -36 55 0 12 -42 12 -476 -1 -45 -2 -95 -8
-112 -15 -25 -11 -35 -10 -68 8 -35 19 -56 21 -214 21 l-176 0 -30 -31 c-16
-17 -37 -35 -47 -40 -27 -15 -96 8 -127 43 -36 39 -61 28 -77 -35 -9 -32 -21
-50 -45 -65 l-32 -21 -48 45 c-74 69 -114 83 -238 85 -58 0 -157 4 -220 8 -63
4 -123 4 -132 -1 -10 -5 -25 -32 -33 -62 l-16 -53 -41 7 c-48 9 -64 26 -73 82
-7 38 -8 39 -38 32 -18 -4 -43 -7 -57 -7 -14 1 -70 2 -125 2 -61 1 -132 9
-181 21 -70 16 -95 18 -174 9 -50 -5 -96 -11 -100 -14 -12 -8 -153 27 -169 41
-12 11 -12 25 -2 88 10 58 10 111 2 223 -9 122 -9 171 4 283 9 74 20 249 25
388 5 144 16 299 26 360 10 59 14 119 11 132 -3 14 -28 59 -54 101 -26 42 -70
135 -98 207 l-50 131 -72 41 c-40 22 -83 55 -96 71 -21 27 -27 30 -61 24 -22
-5 -43 -17 -52 -30 -13 -20 -11 -28 21 -97 96 -208 141 -518 100 -678 -13 -52
-13 -66 0 -130 9 -44 15 -125 15 -210 0 -131 2 -141 30 -208 19 -46 30 -88 30
-119 0 -35 7 -58 24 -84 24 -36 25 -37 10 -95 -9 -32 -22 -66 -29 -74 -31 -34
-45 -95 -60 -260 -14 -142 -14 -174 -4 -181 24 -14 9 -80 -37 -164 l-44 -82
-11 -194 c-7 -137 -17 -223 -34 -294 -20 -87 -22 -117 -18 -230 l5 -130 -47
-145 c-27 -80 -51 -176 -55 -215 -7 -68 -6 -71 27 -121 60 -90 55 -160 -17
-205 -39 -24 -39 -25 -40 -84 0 -98 19 -231 41 -287 28 -73 240 -335 292 -361
23 -12 61 -20 95 -21 l56 -1 12 70 c27 149 19 189 -49 262 -26 28 -29 36 -23
80 3 26 0 156 -8 288 -14 235 -13 245 10 472 23 220 23 239 10 384 l-14 152
30 71 c22 52 32 98 39 171 5 55 15 129 22 165 13 65 13 65 49 68 31 3 40 -2
69 -36 23 -27 67 -56 134 -89 l100 -50 155 28 c85 16 187 29 225 29 39 0 97 7
130 15 33 8 99 15 146 15 77 0 152 15 236 47 10 4 13 0 11 -12 -2 -13 8 -22
40 -32 37 -13 61 -13 190 0 141 13 160 13 477 -13 182 -16 331 -28 331 -29 1
-1 -2 -20 -8 -43 -10 -44 -5 -122 14 -238 9 -54 17 -72 50 -108 71 -77 77
-139 24 -253 l-35 -75 19 -252 c13 -173 17 -306 13 -424 -4 -140 -2 -185 11
-234 22 -85 20 -116 -8 -147 -25 -27 -96 -67 -120 -67 -8 0 -16 6 -18 12 -3 8
-23 -3 -52 -29 -31 -27 -71 -50 -114 -64 -37 -12 -86 -31 -110 -41 -38 -17
-43 -23 -38 -43 6 -25 8 -25 -94 -41 -25 -4 -93 -7 -151 -5 -120 3 -185 -14
-297 -75 l-64 -35 -69 23 -69 22 -173 -22 c-94 -12 -235 -27 -312 -33 -98 -7
-155 -17 -191 -31 l-50 -20 -49 31 -49 31 -181 0 c-175 0 -184 1 -271 30 -49
17 -129 36 -177 43 -87 11 -88 12 -81 37 18 65 14 71 -65 98 -47 16 -129 60
-225 120 -100 62 -181 106 -241 127 -69 25 -104 45 -150 84 -33 29 -105 82
-160 118 l-100 66 -82 -20 -82 -20 -28 23 c-15 12 -26 24 -23 27 3 2 24 16 48
31 47 30 50 36 23 60 -11 10 -38 64 -61 121 -63 158 -122 215 -219 215 -50 0
-52 1 -80 46 l-28 46 18 84 18 83 -51 90 c-33 60 -66 141 -97 243 -39 127 -83
238 -94 238 -1 0 -27 -9 -57 -21 -52 -19 -55 -20 -67 -3 -26 35 -13 73 45 136
23 25 24 30 13 72 -6 25 -11 81 -11 125 l0 79 -72 24 c-62 19 -77 30 -105 66
-18 24 -33 55 -33 69 0 36 29 79 71 109 35 24 37 28 28 57 -5 18 -9 33 -9 33
0 1 8 0 18 -3 14 -3 21 4 30 35 14 46 15 141 3 195 -10 43 16 159 67 297 18
47 63 186 101 310 38 124 79 247 90 273 19 44 20 55 9 112 l-11 64 54 53 c30
29 78 86 107 126 l53 74 -15 39 c-44 108 0 171 147 214 l59 17 46 100 46 101
81 37 c45 21 162 94 261 163 137 95 219 144 344 205 91 43 224 115 296 159 72
45 153 92 180 106 98 49 270 76 484 77 63 0 228 9 365 20 329 26 335 26 430
-11 44 -17 134 -45 201 -63 102 -28 130 -40 190 -83 56 -41 87 -56 169 -78 55
-14 144 -42 198 -61 138 -50 191 -35 263 74 21 31 41 60 44 65 4 4 26 1 49 -8
40 -14 46 -14 89 5 24 11 65 35 91 53 25 18 67 43 93 56 61 29 88 63 88 111 0
26 -7 43 -25 60 -22 21 -38 24 -147 31 -122 7 -124 7 -248 63 -137 62 -225 81
-236 52 -3 -9 -15 -16 -26 -16 -12 0 -40 -18 -64 -40 -64 -58 -86 -55 -163 25
l-63 65 -87 0 c-47 0 -174 11 -281 25 -107 14 -199 24 -205 24 -5 -1 -48 -9
-95 -20z"/>
<path d="M2228 2207 c-105 -30 -169 -101 -211 -232 -32 -101 -32 -290 0 -391
44 -138 119 -213 235 -234 73 -14 175 6 258 51 l60 32 0 188 0 189 -155 0
-155 0 0 -50 0 -50 100 0 100 0 0 -108 0 -109 -42 -19 c-61 -27 -167 -26 -205
2 -37 27 -70 77 -85 128 -21 67 -17 300 5 364 33 93 90 142 167 142 56 0 103
-24 148 -75 l36 -42 48 29 48 30 -20 28 c-76 106 -215 159 -332 127z"/>
<path d="M3020 1780 l0 -420 265 0 265 0 0 50 0 50 -210 0 -210 0 0 145 0 145
170 0 170 0 0 50 0 50 -170 0 -170 0 0 125 0 125 208 2 207 3 3 48 3 47 -265
0 -266 0 0 -420z"/>
<path d="M3940 1780 l0 -420 56 0 57 0 -5 346 c-3 190 -2 340 2 333 4 -8 76
-164 160 -346 l153 -333 68 0 69 0 0 420 0 420 -56 0 -55 0 3 -345 c2 -189 0
-341 -3 -337 -3 4 -75 159 -160 344 l-154 338 -67 0 -68 0 0 -420z"/>
<path d="M4920 1871 c0 -368 3 -387 67 -453 93 -96 303 -96 396 0 66 68 67 73
67 447 l0 335 -55 0 -55 0 -1 -317 c0 -343 -4 -371 -51 -406 -37 -27 -131 -34
-180 -14 -71 30 -73 40 -76 410 l-3 327 -55 0 -54 0 0 -329z"/>
<path d="M5870 2150 l0 -50 115 0 115 0 0 -370 0 -370 55 0 55 0 0 370 0 370
115 0 115 0 0 50 0 50 -285 0 -285 0 0 -50z"/>
<path d="M6890 1780 l0 -420 260 0 260 0 0 50 0 50 -205 0 -205 0 0 145 0 145
170 0 170 0 0 50 0 50 -170 0 -170 0 0 125 0 125 205 0 205 0 0 50 0 50 -260
0 -260 0 0 -420z"/>
<path d="M7870 1780 l0 -420 280 0 280 0 0 50 0 50 -220 0 -220 0 0 370 0 370
-60 0 -60 0 0 -420z"/>
</g>
</svg>
